<?xml version="1.0" encoding="utf-8"?>
<!-- Generator: Adobe Illustrator 16.0.3, SVG Export Plug-In . SVG Version: 6.00 Build 0)  -->
<!DOCTYPE svg PUBLIC "-//W3C//DTD SVG 1.1//EN" "http://www.w3.org/Graphics/SVG/1.1/DTD/svg11.dtd">
<svg version="1.1" id="Layer_1" xmlns="http://www.w3.org/2000/svg" xmlns:xlink="http://www.w3.org/1999/xlink" x="0px" y="0px"
	 width="560.281px" height="196.516px" viewBox="0 0 560.281 196.516" enable-background="new 0 0 560.281 196.516"
	 xml:space="preserve">
<path fill="#E23F4A" d="M190.771,0.049L190.771,0.049l-18.135,42.322c-4.645,10.821-15.293,17.838-27.078,17.838H45.348
	l41.186,96.035c1.111,2.619,2.248,4.002,3.014,4.693c2.471,2.299,5.707,3.559,9.092,3.559c3.385,0,6.597-1.26,9.092-3.559
	c0.766-0.691,1.877-2.074,3.014-4.693l32.563-75.948c4.793,0,9.438-0.643,13.86-1.853l-0.791,1.853l0,0l-34.639,80.692
	c-1.557,3.656-3.533,6.596-5.88,8.771c-4.694,4.348-10.822,6.744-17.246,6.744c-6.423,0-12.526-2.396-17.245-6.77
	c-2.347-2.174-4.323-5.115-5.88-8.771L27.139,48.202h114.515c9.339,0,17.789-5.559,21.47-14.157l5.979-13.91
	c4.076-9.512-2.891-20.086-13.243-20.086l-11.167,26.017c-0.543,1.234-1.754,2.051-3.113,2.051H6.483
	c-4.645,0-7.783,4.744-5.955,9.018l56.504,131.761c2.496,5.832,6.028,11.266,10.673,15.564c8.104,7.512,18.975,12.105,30.908,12.105
	c11.934,0,22.78-4.594,30.908-12.105c4.669-4.322,8.178-9.732,10.673-15.564l63.792-148.759
	C208.089,10.624,201.098,0.049,190.771,0.049z M98.614,133.49L75.811,80.297h45.633L98.614,133.49z"/>
<g>
	<g>
		<path fill="#2A2835" d="M261.381,80.297l-28.091,64.781l-28.116-64.781h14.577l14.058,34.861l13.267-34.861H261.381z"/>
		<path fill="#2A2835" d="M284.777,124.793c1.312,1.828,2.867,3.113,4.695,4.424c2.074,1.037,4.149,1.557,6.25,1.557
			c2.348,0,4.695-0.52,6.498-1.557c2.076-1.037,3.633-2.596,4.694-4.424c1.037-1.826,1.828-3.631,1.828-5.73V80.05H320.7v39.284
			c0,4.424-1.037,8.326-3.385,11.957c-2.348,3.633-5.213,6.252-9.117,8.326c-3.901,2.076-8.053,2.867-12.748,2.867
			c-4.692,0-8.846-1.039-12.477-2.867c-3.904-2.074-6.77-4.693-9.117-8.326c-2.348-3.631-3.385-7.533-3.385-11.957V80.297h12.229
			v39.014C282.976,121.137,283.74,123.237,284.777,124.793z"/>
		<path fill="#2A2835" d="M347.757,80.297v49.957h29.129v11.711h-41.113V80.297H347.757z"/>
		<path fill="#2A2835" d="M426.568,140.928c-3.385,1.309-7.016,1.826-11.191,1.826c-6.497,0-11.956-1.309-16.897-4.148
			c-4.695-2.867-8.326-6.498-10.922-11.193c-2.594-4.693-3.902-9.883-3.902-15.613c0-6.25,1.31-11.711,3.902-16.652
			c2.596-4.941,5.979-8.573,10.674-11.439c4.695-2.866,9.883-4.149,15.615-4.149c3.631,0,7.287,0.519,10.399,1.556
			c3.113,1.037,5.98,2.347,8.326,3.904l-4.692,11.438c-4.423-3.385-8.847-4.941-13.539-4.941c-3.113,0-5.979,0.791-8.847,2.595
			c-2.864,1.829-4.94,4.15-6.498,7.018c-1.557,2.865-2.346,6.25-2.346,9.883c0,3.902,0.789,7.535,2.346,10.4
			c1.558,2.867,3.634,5.213,6.498,7.018c2.867,1.557,5.979,2.596,9.883,2.596c3.113,0,5.732-0.521,8.056-1.557
			c2.348-1.039,4.422-2.076,5.731-3.387l4.941,10.92C432.55,138.309,429.953,139.617,426.568,140.928z"/>
		<path fill="#2A2835" d="M476.773,129.983h-20.557l-4.941,11.957h-11.957l27.844-64.263h0.791l27.845,64.263h-14.06
			L476.773,129.983z M472.869,119.852l-5.979-15.096l-6.252,15.096H472.869z"/>
		<path fill="#2A2835" d="M560.281,80.297v64.264h-0.271l-43.188-39.012l0.271,36.416h-12.229v-63.99h0.519l43.188,39.531
			L548.3,80.297C548.322,80.297,560.281,80.297,560.281,80.297z"/>
	</g>
</g>
</svg>
